<?xml version="1.0" encoding="UTF-8"?>
<!DOCTYPE svg PUBLIC "-//W3C//DTD SVG 1.1//EN" "http://www.w3.org/Graphics/SVG/1.1/DTD/svg11.dtd">
<!-- Creator: CorelDRAW X7 -->
<svg xmlns="http://www.w3.org/2000/svg" xml:space="preserve" width="12.1918mm" height="5.7572mm" version="1.1" style="shape-rendering:geometricPrecision; text-rendering:geometricPrecision; image-rendering:optimizeQuality; fill-rule:evenodd; clip-rule:evenodd"
viewBox="0 0 1219 576"
 xmlns:xlink="http://www.w3.org/1999/xlink">
 <defs>
  <style type="text/css">
   <![CDATA[
    .fil0 {fill:#028DBF}
   ]]>
  </style>
 </defs>
 <g id="Layer_x0020_1">
  <metadata id="CorelCorpID_0Corel-Layer"/>
  <g id="_860970272">
   <path class="fil0" d="M610 15c145,0 264,114 272,257l-65 0c-8,-107 -98,-192 -207,-192 -110,0 -200,85 -208,192l-64 0c8,-143 126,-257 272,-257zm-208 288c8,108 98,193 208,193 109,0 199,-85 207,-193l65 0c-8,144 -127,257 -272,257 -146,0 -264,-113 -272,-257l64 0z"/>
   <path class="fil0" d="M510 159l200 0 0 64 -200 0 0 -64zm-32 234l0 -211 -22 0 0 211 22 0zm32 -21l-32 0 0 21 32 0 0 -21zm0 -190l-32 0 0 22 32 0 0 -22zm253 211l0 -211 -21 0 0 211 21 0zm-21 -211l-32 0 0 22 32 0 0 -22zm0 190l-32 0 0 21 32 0 0 -21zm-232 -20l200 0 0 65 -200 0 0 -65z"/>
   <path class="fil0" d="M510 256l200 0 0 64 -200 0 0 -64zm432 208l0 -352 -22 0 0 352 22 0zm84 -352l-84 0 0 21 84 0 0 -21zm0 330l-84 0 0 22 84 0 0 -22zm21 -253l0 -133 -21 0 0 133 21 0zm0 352l0 -176 -21 0 0 176 21 0zm84 -506l-105 0 0 21 105 0 0 -21zm0 154l-105 0 0 22 105 0 0 -22zm0 330l-84 0 0 22 84 0 0 -22zm0 -154l-84 0 0 21 84 0 0 -21zm22 -121l0 -88 -22 0 0 88 22 0zm0 -154l0 -88 -22 0 0 88 22 0zm66 -88l-66 0 0 21 66 0 0 -21zm0 66l-66 0 0 22 66 0 0 -22zm0 88l-66 0 0 21 66 0 0 -21zm0 66l-66 0 0 22 66 0 0 -22zm-66 198l0 -88 -22 0 0 88 22 0zm66 -88l-66 0 0 21 66 0 0 -21zm0 66l-66 0 0 22 66 0 0 -22zm-66 176l0 -88 -22 0 0 88 22 0zm66 -88l-66 0 0 22 66 0 0 -22zm0 67l-66 0 0 21 66 0 0 -21zm-299 -276l-210 0 0 22 210 0 0 -22zm-621 0l211 0 0 22 -211 0 0 -22zm-22 165l0 -309 22 0 0 309 -22 0zm-84 -330l106 0 0 21 -106 0 0 -21zm0 330l106 0 0 22 -106 0 0 -22zm-21 -253l0 -133 21 0 0 133 -21 0zm0 352l0 -155 21 0 0 155 -21 0zm-84 -506l105 0 0 21 -105 0 0 -21zm-22 55l0 -88 22 0 0 88 -22 0zm-66 -22l66 0 0 22 -66 0 0 -22zm0 -66l66 0 0 21 -66 0 0 -21zm88 187l105 0 0 22 -105 0 0 -22zm0 330l84 0 0 22 -84 0 0 -22zm0 -154l105 0 0 21 -105 0 0 -21zm-22 -121l0 -88 22 0 0 88 -22 0zm-66 -88l66 0 0 21 -66 0 0 -21zm0 66l66 0 0 22 -66 0 0 -22zm66 198l0 -88 22 0 0 88 -22 0zm-66 -88l66 0 0 21 -66 0 0 -21zm0 66l66 0 0 22 -66 0 0 -22zm66 176l0 -88 22 0 0 88 -22 0zm-66 -88l66 0 0 22 -66 0 0 -22zm0 67l66 0 0 21 -66 0 0 -21z"/>
  </g>
 </g>
</svg>
