<?xml version="1.0" encoding="UTF-8"?>
<!DOCTYPE svg PUBLIC "-//W3C//DTD SVG 1.1//EN" "http://www.w3.org/Graphics/SVG/1.1/DTD/svg11.dtd">
<!-- Creator: CorelDRAW X7 -->
<svg xmlns="http://www.w3.org/2000/svg" xml:space="preserve" width="21.6746mm" height="10.1598mm" version="1.1" style="shape-rendering:geometricPrecision; text-rendering:geometricPrecision; image-rendering:optimizeQuality; fill-rule:evenodd; clip-rule:evenodd"
viewBox="0 0 2167 1016"
 xmlns:xlink="http://www.w3.org/1999/xlink">
 <defs>
  <style type="text/css">
   <![CDATA[
    .fil0 {fill:#028DBF}
   ]]>
  </style>
 </defs>
 <g id="Layer_x0020_1">
  <metadata id="CorelCorpID_0Corel-Layer"/>
  <g id="_850722480">
   <path class="fil0" d="M1084 24c258,0 468,202 483,456l-115 0c-14,-190 -174,-341 -368,-341 -195,0 -354,151 -368,341l-115 0c14,-254 225,-456 483,-456zm-368 511c14,191 173,342 368,342 194,0 354,-151 368,-342l115 0c-15,255 -225,457 -483,457 -258,0 -469,-202 -483,-457l115 0z"/>
   <path class="fil0" d="M906 279l355 0 0 115 -355 0 0 -115zm-56 416l0 -374 -38 0 0 374 38 0zm56 -38l-56 0 0 38 56 0 0 -38zm0 -336l-56 0 0 38 56 0 0 -38zm450 374l0 -374 -38 0 0 374 38 0zm-38 -374l-57 0 0 38 57 0 0 -38zm0 336l-57 0 0 38 57 0 0 -38zm-412 -35l355 0 0 115 -355 0 0 -115z"/>
   <path class="fil0" d="M906 451l355 0 0 114 -355 0 0 -114zm768 369l0 -624 -38 0 0 624 38 0zm149 -624l-149 0 0 38 149 0 0 -38zm0 586l-149 0 0 38 149 0 0 -38zm38 -449l0 -236 -38 0 0 236 38 0zm0 624l0 -312 -38 0 0 312 38 0zm149 -898l-187 0 0 38 187 0 0 -38zm0 274l-187 0 0 38 187 0 0 -38zm0 586l-149 0 0 38 149 0 0 -38zm0 -274l-149 0 0 38 149 0 0 -38zm38 -215l0 -156 -38 0 0 156 38 0zm0 -274l0 -156 -38 0 0 156 38 0zm118 -156l-118 0 0 38 118 0 0 -38zm0 118l-118 0 0 38 118 0 0 -38zm0 156l-118 0 0 38 118 0 0 -38zm0 118l-118 0 0 38 118 0 0 -38zm-118 350l0 -156 -38 0 0 156 38 0zm118 -156l-118 0 0 38 118 0 0 -38zm0 118l-118 0 0 38 118 0 0 -38zm-118 312l0 -156 -38 0 0 156 38 0zm118 -156l-118 0 0 38 118 0 0 -38zm0 118l-118 0 0 38 118 0 0 -38zm-530 -489l-375 0 0 38 375 0 0 -38zm-1104 0l374 0 0 38 -374 0 0 -38zm-38 293l0 -548 38 0 0 548 -38 0zm-149 -586l187 0 0 38 -187 0 0 -38zm0 586l187 0 0 38 -187 0 0 -38zm-38 -449l0 -236 38 0 0 236 -38 0zm0 624l0 -274 38 0 0 274 -38 0zm-149 -898l187 0 0 38 -187 0 0 -38zm-38 97l0 -156 38 0 0 156 -38 0zm-118 -38l118 0 0 38 -118 0 0 -38zm0 -118l118 0 0 38 -118 0 0 -38zm156 333l187 0 0 38 -187 0 0 -38zm0 586l149 0 0 38 -149 0 0 -38zm0 -274l187 0 0 38 -187 0 0 -38zm-38 -215l0 -156 38 0 0 156 -38 0zm-118 -156l118 0 0 38 -118 0 0 -38zm0 118l118 0 0 38 -118 0 0 -38zm118 350l0 -156 38 0 0 156 -38 0zm-118 -156l118 0 0 38 -118 0 0 -38zm0 118l118 0 0 38 -118 0 0 -38zm118 312l0 -156 38 0 0 156 -38 0zm-118 -156l118 0 0 38 -118 0 0 -38zm0 118l118 0 0 38 -118 0 0 -38z"/>
  </g>
 </g>
</svg>
