<?xml version="1.0" encoding="UTF-8"?>
<!DOCTYPE svg PUBLIC "-//W3C//DTD SVG 1.1//EN" "http://www.w3.org/Graphics/SVG/1.1/DTD/svg11.dtd">
<!-- Creator: CorelDRAW X7 -->
<svg xmlns="http://www.w3.org/2000/svg" xml:space="preserve" width="3.7252mm" height="1.7778mm" version="1.1" style="shape-rendering:geometricPrecision; text-rendering:geometricPrecision; image-rendering:optimizeQuality; fill-rule:evenodd; clip-rule:evenodd"
viewBox="0 0 373 178"
 xmlns:xlink="http://www.w3.org/1999/xlink">
 <defs>
  <style type="text/css">
   <![CDATA[
    .fil0 {fill:#028DBF}
   ]]>
  </style>
 </defs>
 <g id="Layer_x0020_1">
  <metadata id="CorelCorpID_0Corel-Layer"/>
  <g id="_860961376">
   <path class="fil0" d="M186 5c45,0 81,35 84,79l-20 0c-3,-33 -30,-59 -64,-59 -33,0 -61,26 -63,59l-20 0c2,-44 39,-79 83,-79zm-63 89c2,33 30,59 63,59 34,0 61,-26 64,-59l20 0c-3,44 -39,79 -84,79 -44,0 -81,-35 -83,-79l20 0z"/>
   <path class="fil0" d="M156 49l61 0 0 20 -61 0 0 -20zm-10 72l0 -64 -7 0 0 64 7 0zm10 -6l-10 0 0 6 10 0 0 -6zm0 -58l-10 0 0 6 10 0 0 -6zm77 64l0 -64 -6 0 0 64 6 0zm-6 -64l-10 0 0 6 10 0 0 -6zm0 58l-10 0 0 6 10 0 0 -6zm-71 -6l61 0 0 19 -61 0 0 -19z"/>
   <path class="fil0" d="M156 79l61 0 0 20 -61 0 0 -20zm132 64l0 -108 -6 0 0 108 6 0zm26 -108l-26 0 0 6 26 0 0 -6zm0 101l-26 0 0 7 26 0 0 -7zm7 -77l0 -41 -7 0 0 41 7 0zm0 108l0 -54 -7 0 0 54 7 0zm26 -156l-33 0 0 7 33 0 0 -7zm0 48l-33 0 0 6 33 0 0 -6zm0 101l-26 0 0 7 26 0 0 -7zm0 -47l-26 0 0 6 26 0 0 -6zm6 -38l0 -27 -6 0 0 27 6 0zm0 -47l0 -27 -6 0 0 27 6 0zm21 -27l-21 0 0 7 21 0 0 -7zm0 20l-21 0 0 7 21 0 0 -7zm0 27l-21 0 0 7 21 0 0 -7zm0 21l-21 0 0 6 21 0 0 -6zm-21 60l0 -27 -6 0 0 27 6 0zm21 -27l-21 0 0 7 21 0 0 -7zm0 21l-21 0 0 6 21 0 0 -6zm-21 54l0 -27 -6 0 0 27 6 0zm21 -27l-21 0 0 6 21 0 0 -6zm0 20l-21 0 0 7 21 0 0 -7zm-92 -84l-65 0 0 6 65 0 0 -6zm-191 0l65 0 0 6 -65 0 0 -6zm-7 50l0 -95 7 0 0 95 -7 0zm-26 -101l33 0 0 6 -33 0 0 -6zm0 101l33 0 0 7 -33 0 0 -7zm-6 -77l0 -41 6 0 0 41 -6 0zm0 108l0 -48 6 0 0 48 -6 0zm-26 -156l32 0 0 7 -32 0 0 -7zm-7 17l0 -27 7 0 0 27 -7 0zm-20 -7l20 0 0 7 -20 0 0 -7zm0 -20l20 0 0 7 -20 0 0 -7zm27 58l32 0 0 6 -32 0 0 -6zm0 101l26 0 0 7 -26 0 0 -7zm0 -47l32 0 0 6 -32 0 0 -6zm-7 -38l0 -27 7 0 0 27 -7 0zm-20 -27l20 0 0 7 -20 0 0 -7zm0 21l20 0 0 6 -20 0 0 -6zm20 60l0 -27 7 0 0 27 -7 0zm-20 -27l20 0 0 7 -20 0 0 -7zm0 21l20 0 0 6 -20 0 0 -6zm20 54l0 -27 7 0 0 27 -7 0zm-20 -27l20 0 0 6 -20 0 0 -6zm0 20l20 0 0 7 -20 0 0 -7z"/>
  </g>
 </g>
</svg>
