<?xml version="1.0" encoding="UTF-8"?>
<!DOCTYPE svg PUBLIC "-//W3C//DTD SVG 1.1//EN" "http://www.w3.org/Graphics/SVG/1.1/DTD/svg11.dtd">
<!-- Creator: CorelDRAW X7 -->
<svg xmlns="http://www.w3.org/2000/svg" xml:space="preserve" width="86.6986mm" height="17.1872mm" version="1.1" style="shape-rendering:geometricPrecision; text-rendering:geometricPrecision; image-rendering:optimizeQuality; fill-rule:evenodd; clip-rule:evenodd"
viewBox="0 0 8670 1719"
 xmlns:xlink="http://www.w3.org/1999/xlink">
 <defs>
  <style type="text/css">
   <![CDATA[
    .fil0 {fill:#A1A1A1}
    .fil1 {fill:#A1A1A1;fill-rule:nonzero}
   ]]>
  </style>
 </defs>
 <g id="Layer_x0020_1">
  <metadata id="CorelCorpID_0Corel-Layer"/>
  <g id="_806381280">
   <path class="fil0" d="M1833 40c437,0 794,342 818,773l-195 0c-24,-324 -293,-578 -623,-578 -329,0 -599,254 -623,578l-194 0c24,-431 381,-773 817,-773zm-623 866c24,323 294,578 623,578 330,0 599,-255 623,-578l195 0c-24,430 -381,772 -818,772 -436,0 -793,-342 -817,-772l194 0z"/>
   <path class="fil0" d="M1533 472l601 0 0 194 -601 0 0 -194zm-96 704l0 -634 -65 0 0 634 65 0zm96 -64l-96 0 0 64 96 0 0 -64zm0 -570l-96 0 0 65 96 0 0 -65zm761 634l0 -634 -64 0 0 634 64 0zm-64 -634l-96 0 0 65 96 0 0 -65zm0 570l-96 0 0 64 96 0 0 -64zm-697 -59l601 0 0 194 -601 0 0 -194z"/>
   <path class="fil0" d="M1533 762l601 0 0 194 -601 0 0 -194zm1299 626l0 -1057 -64 0 0 1057 64 0zm253 -1057l-253 0 0 64 253 0 0 -64zm0 992l-253 0 0 65 253 0 0 -65zm64 -760l0 -400 -64 0 0 400 64 0zm0 1057l0 -529 -64 0 0 529 64 0zm252 -1521l-316 0 0 64 316 0 0 -64zm0 464l-316 0 0 64 316 0 0 -64zm0 992l-252 0 0 65 252 0 0 -65zm0 -464l-252 0 0 65 252 0 0 -65zm65 -364l0 -264 -65 0 0 264 65 0zm0 -464l0 -264 -65 0 0 264 65 0zm200 -264l-200 0 0 65 200 0 0 -65zm0 200l-200 0 0 64 200 0 0 -64zm0 264l-200 0 0 64 200 0 0 -64zm0 200l-200 0 0 64 200 0 0 -64zm-200 593l0 -264 -65 0 0 264 65 0zm200 -264l-200 0 0 64 200 0 0 -64zm0 199l-200 0 0 65 200 0 0 -65zm-200 529l0 -265 -65 0 0 265 65 0zm200 -265l-200 0 0 65 200 0 0 -65zm0 200l-200 0 0 65 200 0 0 -65zm-898 -828l-634 0 0 64 634 0 0 -64zm-1869 0l634 0 0 64 -634 0 0 -64zm-65 496l0 -928 65 0 0 928 -65 0zm-252 -992l317 0 0 64 -317 0 0 -64zm0 992l317 0 0 65 -317 0 0 -65zm-64 -760l0 -400 64 0 0 400 -64 0zm0 1057l0 -464 64 0 0 464 -64 0zm-253 -1521l317 0 0 64 -317 0 0 -64zm-64 164l0 -264 64 0 0 264 -64 0zm-200 -64l200 0 0 64 -200 0 0 -64zm0 -200l200 0 0 65 -200 0 0 -65zm264 564l317 0 0 64 -317 0 0 -64zm0 992l253 0 0 65 -253 0 0 -65zm0 -464l317 0 0 65 -317 0 0 -65zm-64 -364l0 -264 64 0 0 264 -64 0zm-200 -264l200 0 0 64 -200 0 0 -64zm0 200l200 0 0 64 -200 0 0 -64zm200 593l0 -264 64 0 0 264 -64 0zm-200 -264l200 0 0 64 -200 0 0 -64zm0 199l200 0 0 65 -200 0 0 -65zm200 529l0 -265 64 0 0 265 -64 0zm-200 -265l200 0 0 65 -200 0 0 -65zm0 200l200 0 0 65 -200 0 0 -65z"/>
   <path class="fil1" d="M4240 1158l0 -607 293 0c76,0 129,15 160,45 31,30 46,83 46,158l0 200c0,75 -15,128 -46,159 -31,30 -84,45 -160,45l-293 0zm66 -60l216 0c58,0 97,-10 117,-30 20,-20 30,-57 30,-113l0 -196c0,-59 -10,-98 -30,-118 -19,-20 -59,-30 -117,-30l-216 0 0 487z"/>
   <path class="fil1" d="M4911 813l219 0c36,0 60,-6 72,-19 12,-13 18,-41 18,-85 0,-41 -6,-67 -19,-78 -13,-11 -46,-16 -100,-16l-190 0 0 198zm0 282l222 0c40,0 67,-7 81,-19 14,-12 21,-45 21,-97 0,-43 -8,-72 -24,-85 -15,-13 -55,-19 -120,-19l-180 0 0 220zm-66 63l0 -607 283 0c65,0 108,10 130,30 21,19 32,60 32,121 0,47 -6,80 -16,99 -10,19 -29,32 -55,39 32,8 54,23 67,43 13,21 19,56 19,105 0,67 -13,112 -40,135 -26,24 -79,35 -158,35l-262 0z"/>
   <path class="fil1" d="M5656 751c0,-77 15,-131 45,-162 30,-30 82,-46 158,-46l71 0c75,0 127,13 157,40 30,26 45,71 45,134l0 26 -69 0 0 -17c0,-46 -9,-77 -28,-94 -19,-17 -55,-25 -110,-25l-47 0c-37,0 -63,2 -80,7 -17,4 -31,12 -42,22 -11,11 -19,24 -24,41 -4,16 -6,47 -6,91l0 173c0,44 2,74 6,91 5,17 13,30 24,41 11,10 25,18 41,22 15,5 43,7 81,7l47 0c56,0 93,-9 112,-26 18,-18 27,-52 27,-102 0,-8 0,-13 0,-18 0,-4 0,-7 0,-11l68 0 0 40c0,68 -14,115 -43,141 -30,26 -83,40 -159,40l-71 0c-76,0 -128,-16 -158,-46 -30,-31 -45,-85 -45,-163l0 -206z"/>
   <path class="fil1" d="M6227 1158l0 -429 61 0 0 59c9,-23 23,-39 42,-49 20,-11 45,-16 76,-16 47,0 80,11 99,34 19,22 28,62 28,120l0 3 -64 0 0 -13c0,-34 -6,-57 -16,-69 -11,-12 -32,-17 -62,-17 -35,0 -61,10 -76,29 -16,21 -24,53 -24,99l0 249 -64 0z"/>
   <path class="fil1" d="M6667 902l243 0 0 -17c0,-40 -8,-68 -22,-82 -14,-14 -43,-22 -86,-22l-29 0c-43,0 -71,8 -85,22 -14,14 -21,42 -21,82l0 17zm107 262c-65,0 -109,-13 -135,-38 -26,-25 -38,-69 -38,-131l0 -102c0,-63 12,-107 38,-132 25,-26 70,-38 134,-38l29 0c65,0 110,12 135,38 26,25 39,69 39,132l0 65 -309 0c-1,4 -1,9 -1,14 0,6 0,13 0,23 0,44 7,74 21,89 14,15 43,22 86,22l29 0c39,0 65,-5 80,-16 15,-11 24,-30 26,-58l67 0c-3,47 -18,80 -45,101 -27,21 -69,31 -127,31l-29 0z"/>
   <path class="fil1" d="M7362 1049l0 -46c0,-20 -10,-35 -31,-44 -21,-10 -54,-15 -99,-15 -42,0 -70,6 -84,16 -14,10 -21,30 -21,60 0,34 8,56 23,68 14,11 44,17 89,17 40,0 70,-5 91,-15 21,-9 32,-23 32,-41zm3 64c-9,18 -25,31 -46,39 -22,8 -51,12 -89,12 -67,0 -112,-10 -135,-29 -23,-19 -34,-55 -34,-107 0,-30 2,-54 7,-71 6,-17 15,-31 27,-41 10,-9 25,-15 45,-19 20,-4 49,-5 87,-5 38,0 68,3 89,9 20,7 36,17 46,32l0 -74c0,-35 -7,-58 -20,-68 -14,-10 -48,-15 -103,-15 -39,0 -66,4 -79,12 -13,8 -20,24 -20,47l-64 0 0 -10c0,-37 12,-63 36,-79 24,-15 65,-23 123,-23 45,0 80,2 104,6 23,3 41,10 52,18 13,10 22,22 27,36 5,15 8,39 8,75l0 300 -58 0 -3 -45z"/>
   <path class="fil1" d="M7494 783l0 -54 52 0 0 -97 64 0 0 97 210 0 0 54 -210 0 0 236c0,34 5,57 16,69 11,12 33,18 63,18 31,0 52,-6 63,-17 10,-12 16,-35 16,-70l0 -12 64 0 0 4c0,60 -10,101 -30,121 -20,21 -61,32 -124,32 -49,0 -84,-11 -103,-33 -19,-22 -29,-63 -29,-120l0 -228 -52 0z"/>
   <path class="fil1" d="M8215 984l0 -73c0,-55 -7,-89 -20,-104 -14,-15 -43,-22 -87,-22l-30 0c-44,0 -72,7 -86,22 -13,15 -20,49 -20,104l0 73c0,55 7,89 21,104 13,15 42,22 85,22l30 0c44,0 73,-8 86,-22 14,-15 21,-50 21,-104zm-136 184c-64,0 -109,-13 -135,-38 -25,-25 -38,-69 -38,-132l0 -102c0,-63 13,-107 38,-132 26,-25 70,-37 134,-37l30 0c64,0 109,12 135,37 25,25 38,69 38,132l0 102c0,63 -12,107 -38,132 -25,25 -70,38 -134,38l-30 0z"/>
   <path class="fil1" d="M8362 1165l0 -429 62 0 0 59c9,-23 23,-39 42,-49 19,-11 45,-16 76,-16 47,0 80,12 99,34 19,23 28,63 28,120l0 3 -64 0 0 -12c0,-34 -6,-58 -17,-69 -10,-12 -31,-18 -61,-18 -35,0 -61,10 -77,30 -15,20 -23,53 -23,98l0 249 -65 0z"/>
  </g>
 </g>
</svg>
