<?xml version="1.0" encoding="UTF-8"?>
<!DOCTYPE svg PUBLIC "-//W3C//DTD SVG 1.1//EN" "http://www.w3.org/Graphics/SVG/1.1/DTD/svg11.dtd">
<!-- Creator: CorelDRAW X7 -->
<svg xmlns="http://www.w3.org/2000/svg" xml:space="preserve" width="43.3492mm" height="20.32mm" version="1.1" style="shape-rendering:geometricPrecision; text-rendering:geometricPrecision; image-rendering:optimizeQuality; fill-rule:evenodd; clip-rule:evenodd"
viewBox="0 0 4335 2032"
 xmlns:xlink="http://www.w3.org/1999/xlink">
 <defs>
  <style type="text/css">
   <![CDATA[
    .fil0 {fill:#A1A1A1}
   ]]>
  </style>
 </defs>
 <g id="Layer_x0020_1">
  <metadata id="CorelCorpID_0Corel-Layer"/>
  <g id="_807382624">
   <path class="fil0" d="M2167 47c517,0 939,405 967,914l-230 0c-28,-382 -347,-684 -737,-684 -389,0 -708,302 -736,684l-230 0c28,-509 450,-914 966,-914zm-736 1024c28,382 347,684 736,684 390,0 709,-302 737,-684l230 0c-28,509 -450,913 -967,913 -516,0 -938,-404 -966,-913l230 0z"/>
   <path class="fil0" d="M1812 558l711 0 0 229 -711 0 0 -229zm-113 833l0 -750 -77 0 0 750 77 0zm113 -76l-113 0 0 76 113 0 0 -76zm0 -674l-113 0 0 76 113 0 0 -76zm901 750l0 -750 -77 0 0 750 77 0zm-77 -750l-113 0 0 76 113 0 0 -76zm0 674l-113 0 0 76 113 0 0 -76zm-824 -70l711 0 0 229 -711 0 0 -229z"/>
   <path class="fil0" d="M1812 901l711 0 0 229 -711 0 0 -229zm1537 740l0 -1250 -77 0 0 1250 77 0zm298 -1250l-298 0 0 76 298 0 0 -76zm0 1174l-298 0 0 76 298 0 0 -76zm76 -900l0 -472 -76 0 0 472 76 0zm0 1250l0 -625 -76 0 0 625 76 0zm299 -1798l-375 0 0 76 375 0 0 -76zm0 548l-375 0 0 77 375 0 0 -77zm0 1174l-299 0 0 76 299 0 0 -76zm0 -549l-299 0 0 77 299 0 0 -77zm76 -430l0 -313 -76 0 0 313 76 0zm0 -549l0 -312 -76 0 0 312 76 0zm236 -312l-236 0 0 76 236 0 0 -76zm0 236l-236 0 0 76 236 0 0 -76zm0 312l-236 0 0 77 236 0 0 -77zm0 237l-236 0 0 76 236 0 0 -76zm-236 701l0 -313 -76 0 0 313 76 0zm236 -313l-236 0 0 76 236 0 0 -76zm0 237l-236 0 0 76 236 0 0 -76zm-236 624l0 -312 -76 0 0 312 76 0zm236 -312l-236 0 0 76 236 0 0 -76zm0 236l-236 0 0 76 236 0 0 -76zm-1062 -979l-749 0 0 76 749 0 0 -76zm-2210 0l750 0 0 76 -750 0 0 -76zm-76 587l0 -1098 76 0 0 1098 -76 0zm-298 -1174l374 0 0 76 -374 0 0 -76zm0 1174l374 0 0 76 -374 0 0 -76zm-76 -900l0 -472 76 0 0 472 -76 0zm0 1250l0 -548 76 0 0 548 -76 0zm-299 -1798l375 0 0 76 -375 0 0 -76zm-76 194l0 -312 76 0 0 312 -76 0zm-236 -76l236 0 0 76 -236 0 0 -76zm0 -236l236 0 0 76 -236 0 0 -76zm312 666l375 0 0 77 -375 0 0 -77zm0 1174l299 0 0 76 -299 0 0 -76zm0 -549l375 0 0 77 -375 0 0 -77zm-76 -430l0 -313 76 0 0 313 -76 0zm-236 -313l236 0 0 77 -236 0 0 -77zm0 237l236 0 0 76 -236 0 0 -76zm236 701l0 -313 76 0 0 313 -76 0zm-236 -313l236 0 0 76 -236 0 0 -76zm0 237l236 0 0 76 -236 0 0 -76zm236 624l0 -312 76 0 0 312 -76 0zm-236 -312l236 0 0 76 -236 0 0 -76zm0 236l236 0 0 76 -236 0 0 -76z"/>
  </g>
 </g>
</svg>
